<svg id="Layer_1" data-name="Layer 1" xmlns="http://www.w3.org/2000/svg" viewBox="0 0 266.48 37.22"><defs><style>.cls-1{fill:#1e1e1c;}.cls-2{fill:#c30b66;}.cls-3{fill:#305051;}</style></defs><path class="cls-1" d="M43,32a7.53,7.53,0,0,1-3.17-.6,4.41,4.41,0,0,1-2-1.67,4.34,4.34,0,0,1-.67-2.4h2.7a2.11,2.11,0,0,0,.31,1.1,2.22,2.22,0,0,0,1,.87,4.19,4.19,0,0,0,1.8.33,4.4,4.4,0,0,0,1.7-.29,2.38,2.38,0,0,0,1-.77A1.8,1.8,0,0,0,46,27.46a1.41,1.41,0,0,0-.64-1.2,4.22,4.22,0,0,0-2-.57l-1.25-.12a5.35,5.35,0,0,1-3.25-1.27,3.72,3.72,0,0,1-1.22-2.9,4,4,0,0,1,2.44-3.86,7.09,7.09,0,0,1,5.5,0,4.18,4.18,0,0,1,1.81,1.58,4.47,4.47,0,0,1,.63,2.4h-2.7a2.2,2.2,0,0,0-.27-1.06,2,2,0,0,0-.84-.8,3.4,3.4,0,0,0-2.77,0,1.92,1.92,0,0,0-.8.74,1.82,1.82,0,0,0-.28,1,1.57,1.57,0,0,0,.49,1.15,2.35,2.35,0,0,0,1.53.58l1.23.11a7.82,7.82,0,0,1,2.67.64,4.46,4.46,0,0,1,1.78,1.42,3.61,3.61,0,0,1,.64,2.16,4.05,4.05,0,0,1-.7,2.36,4.61,4.61,0,0,1-2,1.59A7.7,7.7,0,0,1,43,32Z" transform="translate(-4.26 -4.33)"/><path class="cls-1" d="M53.64,31.6l4.82-14.19H63L68,31.6H65.1L60.91,19.3l1,.43H59.47l1-.43L56.4,31.6ZM57,27.85l.87-2.35h5.74l.87,2.35Z" transform="translate(-4.26 -4.33)"/><path class="cls-1" d="M74,31.6V17.41h2.76V31.6Z" transform="translate(-4.26 -4.33)"/><path class="cls-1" d="M84.17,31.6V17.41h2.76V31.6Zm9.19,0L88.17,25h-2l6.16-7.56H95.5l-5.56,6.8-.08-1.36,6.86,8.75Z" transform="translate(-4.26 -4.33)"/><path class="cls-1" d="M102.24,31.6V17.41H105V31.6Z" transform="translate(-4.26 -4.33)"/><path class="cls-2" d="M118.74,32a7.59,7.59,0,0,1-3.3-.67,6.73,6.73,0,0,1-2.28-1.77,7.76,7.76,0,0,1-1.32-2.38,8,8,0,0,1-.42-2.49v-.43a8.19,8.19,0,0,1,.43-2.63,7,7,0,0,1,1.34-2.34,6.51,6.51,0,0,1,2.27-1.67,7.49,7.49,0,0,1,3.18-.63,7.88,7.88,0,0,1,3.45.73,6.07,6.07,0,0,1,3.49,5.09H122a2.78,2.78,0,0,0-.59-1.29,3,3,0,0,0-1.14-.84,4,4,0,0,0-1.6-.3,3.65,3.65,0,0,0-1.5.29,3.11,3.11,0,0,0-1.13.82,3.77,3.77,0,0,0-.7,1.3,5.61,5.61,0,0,0-.24,1.71,5.7,5.7,0,0,0,.24,1.71,3.58,3.58,0,0,0,.72,1.3,3,3,0,0,0,1.16.82,4,4,0,0,0,1.55.29A3.88,3.88,0,0,0,121,28a2.64,2.64,0,0,0,1.14-1.77h3.62a6.38,6.38,0,0,1-3.48,5A7.59,7.59,0,0,1,118.74,32Z" transform="translate(-4.26 -4.33)"/><path class="cls-2" d="M134.85,32a8.06,8.06,0,0,1-3.38-.67,7.17,7.17,0,0,1-2.39-1.77,7.67,7.67,0,0,1-1.42-2.38,7.32,7.32,0,0,1-.46-2.49v-.43a7.5,7.5,0,0,1,.48-2.63,7.19,7.19,0,0,1,1.46-2.34,7,7,0,0,1,2.4-1.67,9,9,0,0,1,6.61,0,7,7,0,0,1,2.4,1.67,7.39,7.39,0,0,1,2,5v.43a7.13,7.13,0,0,1-.48,2.49,7.67,7.67,0,0,1-1.42,2.38,7.27,7.27,0,0,1-2.39,1.77A8,8,0,0,1,134.85,32Zm0-3.38a4.4,4.4,0,0,0,1.67-.31,3.58,3.58,0,0,0,1.27-.88,3.71,3.71,0,0,0,.79-1.31,4.52,4.52,0,0,0,.28-1.62,4.71,4.71,0,0,0-.29-1.69,3.64,3.64,0,0,0-.8-1.31,3.46,3.46,0,0,0-1.27-.83,4.33,4.33,0,0,0-1.65-.29,4.4,4.4,0,0,0-1.67.29,3.51,3.51,0,0,0-1.26.83,3.64,3.64,0,0,0-.8,1.31,5,5,0,0,0-.27,1.69,4.75,4.75,0,0,0,.27,1.62,3.73,3.73,0,0,0,.8,1.31,3.63,3.63,0,0,0,1.26.88A4.4,4.4,0,0,0,134.85,28.61Z" transform="translate(-4.26 -4.33)"/><path class="cls-2" d="M144.88,31.6V17.41h5.93l4.72,11.31h.68l-.39.35V17.41h3.38V31.6h-6l-4.72-11.31h-.68l.38-.35V31.6Z" transform="translate(-4.26 -4.33)"/><path class="cls-2" d="M167.33,32a8,8,0,0,1-3.33-.62,4.65,4.65,0,0,1-2.05-1.7,4.51,4.51,0,0,1-.69-2.48h3.5a1.69,1.69,0,0,0,.28.92,1.78,1.78,0,0,0,.85.65,3.73,3.73,0,0,0,1.44.24,3.8,3.8,0,0,0,1.29-.2,1.84,1.84,0,0,0,.82-.54,1.35,1.35,0,0,0,.28-.84,1.09,1.09,0,0,0-.53-1,4,4,0,0,0-1.76-.44l-.92-.08a5.82,5.82,0,0,1-3.5-1.38,4.07,4.07,0,0,1-1.3-3.14,4.27,4.27,0,0,1,.65-2.39,4.13,4.13,0,0,1,1.84-1.52,7.69,7.69,0,0,1,5.76.06,4.26,4.26,0,0,1,1.86,1.64,4.65,4.65,0,0,1,.64,2.46H169a1.7,1.7,0,0,0-.23-.86,1.65,1.65,0,0,0-.67-.61A2.31,2.31,0,0,0,167,20a2.35,2.35,0,0,0-1,.18,1.43,1.43,0,0,0-.61.52,1.41,1.41,0,0,0-.2.74,1.29,1.29,0,0,0,.37.93,2,2,0,0,0,1.28.47l.91.07a8.46,8.46,0,0,1,2.82.69,4.75,4.75,0,0,1,1.93,1.51,3.86,3.86,0,0,1,.7,2.33,4.17,4.17,0,0,1-.71,2.41,4.56,4.56,0,0,1-2,1.59A7.93,7.93,0,0,1,167.33,32Z" transform="translate(-4.26 -4.33)"/><path class="cls-2" d="M181.34,32a7.15,7.15,0,0,1-3.45-.76,5.12,5.12,0,0,1-2.15-2.15,6.92,6.92,0,0,1-.74-3.29V17.41h3.62v8.46a3.16,3.16,0,0,0,.32,1.45,2.19,2.19,0,0,0,.92,1,3.48,3.48,0,0,0,3,0,2.2,2.2,0,0,0,.91-1,3.12,3.12,0,0,0,.31-1.46V17.41h3.62v8.38a7,7,0,0,1-.73,3.29,5,5,0,0,1-2.14,2.15A7.15,7.15,0,0,1,181.34,32Z" transform="translate(-4.26 -4.33)"/><path class="cls-2" d="M190.45,31.6V17.41h3.62V31.6Zm3.23,0V28.45h5.75V31.6Z" transform="translate(-4.26 -4.33)"/><path class="cls-2" d="M198.81,20.56V17.41H210.2v3.15Zm3.89,11V20.17h3.61V31.6Z" transform="translate(-4.26 -4.33)"/><path class="cls-2" d="M209.62,31.6l4.54-14.19H220l4.7,14.19h-3.73l-3.66-11.66,1,.39h-2.56l1-.39L213.23,31.6Zm3.71-3.28,1.09-3h5.38l1.09,3Z" transform="translate(-4.26 -4.33)"/><path class="cls-2" d="M226.45,31.6V17.41h5.92l4.73,11.31h.68l-.39.35V17.41h3.38V31.6h-6l-4.72-11.31h-.68l.39-.35V31.6Z" transform="translate(-4.26 -4.33)"/><path class="cls-2" d="M250.47,32a7.63,7.63,0,0,1-3.31-.67,6.69,6.69,0,0,1-2.27-1.77,7.37,7.37,0,0,1-1.32-2.38,7.77,7.77,0,0,1-.43-2.49v-.43a8.2,8.2,0,0,1,.44-2.63,7,7,0,0,1,1.34-2.34,6.47,6.47,0,0,1,2.26-1.67,7.53,7.53,0,0,1,3.19-.63,7.88,7.88,0,0,1,3.45.73,6.26,6.26,0,0,1,2.42,2,6.17,6.17,0,0,1,1.07,3.05h-3.62a2.77,2.77,0,0,0-.58-1.29,3,3,0,0,0-1.15-.84,4,4,0,0,0-1.59-.3,3.67,3.67,0,0,0-1.51.29,3.07,3.07,0,0,0-1.12.82,3.61,3.61,0,0,0-.7,1.3,5.61,5.61,0,0,0-.24,1.71A5.7,5.7,0,0,0,247,26.2a3.58,3.58,0,0,0,.72,1.3,3,3,0,0,0,1.15.82,4.05,4.05,0,0,0,1.56.29,3.92,3.92,0,0,0,2.3-.66,2.64,2.64,0,0,0,1.14-1.77h3.61a6.24,6.24,0,0,1-1.07,2.91A6.35,6.35,0,0,1,254,31.2,7.58,7.58,0,0,1,250.47,32Z" transform="translate(-4.26 -4.33)"/><path class="cls-2" d="M262.13,26.27l-4-8.86h3.69l2.7,6.32-.51-.18h1.4l-.54.18,2.39-6.32h3.5l-3.67,8.86Zm.7,5.33V25.81h3.54V31.6Z" transform="translate(-4.26 -4.33)"/><polygon class="cls-3" points="16.97 17.67 9.7 28.47 7.53 31.68 6.33 33.47 6.33 33.47 7.05 37.22 10.76 36 10.76 36 12.37 32.99 14.42 29.15 19.71 19.23 16.97 17.67"/><polygon class="cls-2" points="12.75 0 10.5 2.68 10.5 2.68 10.75 6.53 11 10.39 11.59 19.64 11.59 19.64 14.63 13.79 14.77 10.2 14.91 6.36 15.06 2.51 15.06 2.51 12.75 0"/><polygon class="cls-3" points="21.47 5.26 18.54 6.26 18.54 6.26 18.09 7.13 16.31 10.55 14.63 13.79 11.59 19.64 11.59 19.64 13.78 20.86 19.43 12.26 21.54 9.05 22.08 8.23 22.08 8.23 21.47 5.26"/><path class="cls-3" d="M26.58,14l-.4.6-1.74,2.65a9.55,9.55,0,0,1-4.33,15.94l-1.2,2.24-1,1.9A13.38,13.38,0,0,0,26.58,14Z" transform="translate(-4.26 -4.33)"/><path class="cls-2" d="M12.09,33.62,13,32.31A9.55,9.55,0,0,1,14.4,15l-.15-2.25-.1-1.68a13.38,13.38,0,0,0-3.32,24.43Z" transform="translate(-4.26 -4.33)"/></svg>