<svg id="Layer_1" data-name="Layer 1" xmlns="http://www.w3.org/2000/svg" viewBox="0 0 210 45"><defs><style>.cls-1{fill:#1e1e1c;}.cls-2{fill:#137b8c;}.cls-3{fill:#305051;}</style></defs><path class="cls-1" d="M42.59,31.5a7.41,7.41,0,0,1-3.17-.61,4.5,4.5,0,0,1-2-1.66,4.42,4.42,0,0,1-.67-2.4h2.7a2.24,2.24,0,0,0,.31,1.1,2.31,2.31,0,0,0,1,.87,5,5,0,0,0,3.49,0,2.31,2.31,0,0,0,1-.76A1.8,1.8,0,0,0,45.64,27a1.41,1.41,0,0,0-.64-1.2,4.18,4.18,0,0,0-2-.57l-1.24-.12a5.38,5.38,0,0,1-3.26-1.27,3.72,3.72,0,0,1-1.21-2.91,4.19,4.19,0,0,1,.64-2.34,4.13,4.13,0,0,1,1.8-1.51,7.09,7.09,0,0,1,5.5,0A4.15,4.15,0,0,1,47,18.68a4.47,4.47,0,0,1,.63,2.4H45A2.17,2.17,0,0,0,44.69,20a2.09,2.09,0,0,0-.83-.81,3,3,0,0,0-1.42-.31,2.81,2.81,0,0,0-1.35.29,1.93,1.93,0,0,0-.81.73,2,2,0,0,0-.27,1,1.62,1.62,0,0,0,.48,1.16,2.34,2.34,0,0,0,1.54.57l1.22.12a7.82,7.82,0,0,1,2.68.64,4.35,4.35,0,0,1,1.77,1.42A3.61,3.61,0,0,1,48.35,27a4.13,4.13,0,0,1-.7,2.36,4.5,4.5,0,0,1-2,1.58A7.53,7.53,0,0,1,42.59,31.5Z"/><path class="cls-1" d="M53.26,31.13l4.82-14.19h4.53l5,14.19H64.73l-4.2-12.3,1,.42H59.09l1-.42L56,31.13Zm3.38-3.75L57.52,25h5.73l.88,2.35Z"/><path class="cls-1" d="M73.61,31.13V16.94h2.76V31.13Z"/><path class="cls-1" d="M83.79,31.13V16.94h2.76V31.13Zm9.2,0L87.8,24.5h-2L92,16.94h3.16l-5.55,6.8-.08-1.36,6.86,8.75Z"/><path class="cls-1" d="M101.87,31.13V16.94h2.76V31.13Z"/><path class="cls-2" d="M111.78,31.13V16.94h3.61V31.13Z"/><path class="cls-2" d="M118.5,31.13V16.94h5l2.91,7.48h.39l2.9-7.48h5.11V31.13h-3.58V19l.57,0-3.66,9.21h-3.28l-3.68-9.21.61,0V31.13Z"/><path class="cls-2" d="M136.62,31.13l4.54-14.19H147l4.71,14.19h-3.73l-3.66-11.66,1,.39h-2.56l1-.39-3.56,11.66Zm3.71-3.29,1.09-2.95h5.38l1.09,2.95Z"/><path class="cls-2" d="M159.67,31.52a8.15,8.15,0,0,1-3.44-.67,6.86,6.86,0,0,1-2.36-1.76,7.38,7.38,0,0,1-1.34-2.37,8.05,8.05,0,0,1-.42-2.51v-.43a7.86,7.86,0,0,1,.44-2.61,7.22,7.22,0,0,1,1.35-2.34,6.82,6.82,0,0,1,2.27-1.69,7.49,7.49,0,0,1,3.18-.63,7.94,7.94,0,0,1,3.47.72,6.25,6.25,0,0,1,2.42,2,5.85,5.85,0,0,1,1.07,3H162.7a2.44,2.44,0,0,0-.57-1.16A3.06,3.06,0,0,0,161,20.2a4,4,0,0,0-1.63-.31,3.59,3.59,0,0,0-1.54.31,3.07,3.07,0,0,0-1.13.85,4,4,0,0,0-.69,1.31,5.82,5.82,0,0,0-.23,1.65,5.31,5.31,0,0,0,.25,1.67,4.06,4.06,0,0,0,.74,1.34,3.22,3.22,0,0,0,1.22.88,4.33,4.33,0,0,0,1.7.31,4.12,4.12,0,0,0,2.07-.5A2.78,2.78,0,0,0,163,26.37l-.27,2.13V25.41H166v2.92a6,6,0,0,1-2.54,2.36A8.33,8.33,0,0,1,159.67,31.52Zm-.39-5.41V23.59h7.89v2.52Z"/><path class="cls-2" d="M169.19,31.13V16.94h3.5V31.13Zm3.11-11.24V16.94h5.87v2.95Zm0,5.5V22.44h5.58v2.95Zm0,5.74v-3h6v3Z"/><path class="cls-2" d="M180.89,31.13V16.82h3.61V31.13Zm2.7-4.36V24H187a2.28,2.28,0,0,0,1.11-.25,1.87,1.87,0,0,0,.73-.72,2.21,2.21,0,0,0,.26-1.08,2.28,2.28,0,0,0-.26-1.11,1.87,1.87,0,0,0-.73-.72,2.28,2.28,0,0,0-1.11-.25h-3.4v-3h3.19a8.26,8.26,0,0,1,3.18.56A4.39,4.39,0,0,1,192,19a4.71,4.71,0,0,1,.72,2.67V22a4.56,4.56,0,0,1-.73,2.66A4.44,4.44,0,0,1,190,26.24a8.38,8.38,0,0,1-3.17.53Zm5.85,4.36-4-6h3.93l4.22,6Z"/><path class="cls-2" d="M197.5,25.8l-4-8.86h3.69l2.7,6.32-.5-.18h1.4l-.55.18,2.39-6.32h3.5l-3.67,8.86Zm.7,5.33V25.34h3.54v5.79Z"/><polygon class="cls-3" points="20.85 21.52 13.58 32.32 11.42 35.54 10.22 37.32 10.22 37.32 10.94 41.07 14.65 39.85 14.65 39.85 16.25 36.84 18.3 33 23.59 23.08 20.85 21.52"/><polygon class="cls-2" points="16.64 3.85 14.39 6.53 14.39 6.53 14.64 10.38 14.88 14.25 15.48 23.5 15.48 23.5 18.52 17.65 18.66 14.05 18.8 10.21 18.95 6.36 18.95 6.36 16.64 3.85"/><polygon class="cls-3" points="25.36 9.12 22.43 10.12 22.43 10.12 21.98 10.98 20.2 14.41 18.52 17.65 15.48 23.5 15.48 23.5 17.67 24.71 23.32 16.11 25.43 12.9 25.97 12.08 25.97 12.08 25.36 9.12"/><path class="cls-3" d="M26.2,13.55l-.4.6-1.73,2.64a9.56,9.56,0,0,1-4.34,15.94L18.54,35l-1,1.9A13.37,13.37,0,0,0,26.2,13.55Z"/><path class="cls-2" d="M11.71,33.15l.88-1.31A9.56,9.56,0,0,1,14,14.51l-.14-2.24-.11-1.68A13.38,13.38,0,0,0,10.45,35Z"/></svg>