<svg id="Layer_1" data-name="Layer 1" xmlns="http://www.w3.org/2000/svg" viewBox="0 0 260 45"><defs><style>.cls-1{fill:#1e1e1c;}.cls-2{fill:#660e36;}.cls-3{fill:#305051;}</style></defs><path class="cls-1" d="M42.44,31.29a7.33,7.33,0,0,1-3.16-.61,4.48,4.48,0,0,1-2-1.66,4.42,4.42,0,0,1-.67-2.4h2.7a2.16,2.16,0,0,0,1.32,2,4,4,0,0,0,1.79.34,4.14,4.14,0,0,0,1.7-.3,2.4,2.4,0,0,0,1-.76,1.87,1.87,0,0,0,.34-1.08,1.42,1.42,0,0,0-.65-1.2,4.14,4.14,0,0,0-2-.57l-1.24-.12a5.38,5.38,0,0,1-3.26-1.27,3.72,3.72,0,0,1-1.21-2.91,4,4,0,0,1,2.44-3.85,6.33,6.33,0,0,1,2.71-.54,6.52,6.52,0,0,1,2.79.56,4.32,4.32,0,0,1,1.81,1.59,4.47,4.47,0,0,1,.63,2.4h-2.7a2.18,2.18,0,0,0-.28-1.06,2.09,2.09,0,0,0-.83-.81,3,3,0,0,0-1.42-.31,2.94,2.94,0,0,0-1.35.28,2,2,0,0,0-.81.74,2,2,0,0,0-.27,1,1.59,1.59,0,0,0,.49,1.16,2.29,2.29,0,0,0,1.53.57l1.22.12a7.82,7.82,0,0,1,2.68.64,4.38,4.38,0,0,1,1.78,1.42,3.68,3.68,0,0,1,.64,2.16,4.13,4.13,0,0,1-.7,2.36,4.5,4.5,0,0,1-2,1.58A7.53,7.53,0,0,1,42.44,31.29Z"/><path class="cls-1" d="M53.11,30.92l4.82-14.19h4.53l5,14.19H64.58l-4.2-12.31,1,.43H58.94l1-.43L55.87,30.92Zm3.39-3.75.87-2.36H63.1L64,27.17Z"/><path class="cls-1" d="M73.46,30.92V16.73h2.76V30.92Z"/><path class="cls-1" d="M83.64,30.92V16.73H86.4V30.92Zm9.2,0-5.19-6.63h-2l6.16-7.56H95l-5.56,6.8-.08-1.36,6.86,8.75Z"/><path class="cls-1" d="M101.72,30.92V16.73h2.76V30.92Z"/><path class="cls-2" d="M110.54,19.88V16.73h11.39v3.15Zm3.89,11V19.49H118V30.92Z"/><path class="cls-2" d="M124,30.92V16.73h3.5V30.92Zm3.11-11.24V16.73h5.87v2.95Zm0,5.5V22.23h5.58v2.95Zm0,5.74V28h6v3Z"/><path class="cls-2" d="M142.12,31.31a7.59,7.59,0,0,1-3.3-.67,6.59,6.59,0,0,1-2.27-1.77,7.7,7.7,0,0,1-1.33-2.38A8,8,0,0,1,134.8,24v-.43a8.19,8.19,0,0,1,.43-2.63,7.09,7.09,0,0,1,1.34-2.34,6.66,6.66,0,0,1,2.27-1.68A7.69,7.69,0,0,1,142,16.3a7.8,7.8,0,0,1,3.45.73A6,6,0,0,1,149,22.11h-3.61a2.83,2.83,0,0,0-.58-1.28,3,3,0,0,0-1.15-.84,3.86,3.86,0,0,0-1.59-.31,3.67,3.67,0,0,0-1.51.3,3.11,3.11,0,0,0-1.13.82,3.82,3.82,0,0,0-.7,1.29,5.7,5.7,0,0,0-.24,1.71,5.61,5.61,0,0,0,.24,1.71,3.62,3.62,0,0,0,.72,1.31,3.19,3.19,0,0,0,1.16.82,4.39,4.39,0,0,0,3.86-.38,2.67,2.67,0,0,0,1.13-1.77h3.62a6.34,6.34,0,0,1-1.07,2.92,6.51,6.51,0,0,1-2.41,2.11A7.72,7.72,0,0,1,142.12,31.31Z"/><path class="cls-2" d="M151.28,30.92V16.73h3.61V30.92Zm3-5.58V22.19h6.65v3.15Zm6,5.58V16.73h3.62V30.92Z"/><path class="cls-2" d="M167,30.92V16.73h5.93L177.63,28h.68l-.39.35V16.73h3.38V30.92h-6l-4.73-11.31h-.68l.39-.35V30.92Z"/><path class="cls-2" d="M191.33,31.31a8.06,8.06,0,0,1-3.38-.67,7.07,7.07,0,0,1-2.39-1.77,7.6,7.6,0,0,1-1.42-2.38,7.34,7.34,0,0,1-.47-2.49v-.43a7.51,7.51,0,0,1,.49-2.63,6.92,6.92,0,0,1,1.46-2.34,7,7,0,0,1,2.4-1.68,9.09,9.09,0,0,1,6.6,0A7,7,0,0,1,197,18.6a7.11,7.11,0,0,1,1.47,2.34,7.31,7.31,0,0,1,.5,2.63V24a7.13,7.13,0,0,1-.48,2.49,7.82,7.82,0,0,1-1.43,2.38,7.07,7.07,0,0,1-2.39,1.77A8,8,0,0,1,191.33,31.31Zm0-3.39a4.21,4.21,0,0,0,1.67-.31,3.64,3.64,0,0,0,1.27-.87,4,4,0,0,0,.79-1.31,5.15,5.15,0,0,0,0-3.32,3.74,3.74,0,0,0-.8-1.3A3.55,3.55,0,0,0,193,20a4.33,4.33,0,0,0-1.65-.3,4.4,4.4,0,0,0-1.67.3,3.51,3.51,0,0,0-1.26.83,3.6,3.6,0,0,0-.8,1.3,5,5,0,0,0-.27,1.69,4.76,4.76,0,0,0,.27,1.63,3.82,3.82,0,0,0,.8,1.31,3.6,3.6,0,0,0,1.26.87A4.21,4.21,0,0,0,191.33,27.92Z"/><path class="cls-2" d="M201.36,30.92V16.73H205V30.92Zm3.22,0V27.77h5.76v3.15Z"/><path class="cls-2" d="M219.12,31.31a8.06,8.06,0,0,1-3.38-.67,7.07,7.07,0,0,1-2.39-1.77,7.79,7.79,0,0,1-1.42-2.38,7.34,7.34,0,0,1-.47-2.49v-.43a7.51,7.51,0,0,1,.49-2.63,6.92,6.92,0,0,1,1.46-2.34,7.2,7.2,0,0,1,2.4-1.68,9.12,9.12,0,0,1,6.61,0,7.12,7.12,0,0,1,3.86,4,7.31,7.31,0,0,1,.5,2.63V24a7.13,7.13,0,0,1-.48,2.49,7.63,7.63,0,0,1-1.43,2.38,7.07,7.07,0,0,1-2.39,1.77A8,8,0,0,1,219.12,31.31Zm0-3.39a4.21,4.21,0,0,0,1.67-.31,3.55,3.55,0,0,0,1.27-.87,3.8,3.8,0,0,0,.79-1.31,5,5,0,0,0,0-3.32,3.6,3.6,0,0,0-.8-1.3,3.46,3.46,0,0,0-1.27-.83,4.33,4.33,0,0,0-1.65-.3,4.4,4.4,0,0,0-1.67.3,3.51,3.51,0,0,0-1.26.83,3.6,3.6,0,0,0-.8,1.3,5,5,0,0,0-.27,1.69,4.76,4.76,0,0,0,.27,1.63,3.82,3.82,0,0,0,.8,1.31,3.6,3.6,0,0,0,1.26.87A4.21,4.21,0,0,0,219.12,27.92Z"/><path class="cls-2" d="M236,31.31a8.21,8.21,0,0,1-3.44-.67,6.82,6.82,0,0,1-2.35-1.76,7.2,7.2,0,0,1-1.34-2.37,7.84,7.84,0,0,1-.43-2.51v-.43A7.87,7.87,0,0,1,228.9,21a7.17,7.17,0,0,1,1.35-2.35,6.75,6.75,0,0,1,2.26-1.68,7.53,7.53,0,0,1,3.19-.63,8,8,0,0,1,3.47.72,6.23,6.23,0,0,1,2.42,2A5.94,5.94,0,0,1,242.66,22H239a2.38,2.38,0,0,0-.56-1.16,3.1,3.1,0,0,0-1.16-.81,3.94,3.94,0,0,0-1.62-.31,3.56,3.56,0,0,0-1.54.31,3,3,0,0,0-1.13.85,3.65,3.65,0,0,0-.69,1.31,5.48,5.48,0,0,0-.24,1.65,5.31,5.31,0,0,0,.26,1.67,4,4,0,0,0,.74,1.34,3.22,3.22,0,0,0,1.22.88A4.28,4.28,0,0,0,236,28a4.16,4.16,0,0,0,2.08-.5,2.88,2.88,0,0,0,1.23-1.34L239,28.29V25.2h3.31v2.92a6,6,0,0,1-2.54,2.36A8.34,8.34,0,0,1,236,31.31Zm-.39-5.41V23.38h7.89V25.9Z"/><path class="cls-2" d="M247.65,25.59l-4-8.86h3.69l2.7,6.32-.5-.18h1.4l-.55.18,2.39-6.32h3.5l-3.67,8.86Zm.7,5.33V25.13h3.54v5.79Z"/><polygon class="cls-3" points="20.71 21.31 13.43 32.11 11.27 35.33 10.07 37.11 10.07 37.11 10.79 40.86 14.5 39.64 14.5 39.64 16.11 36.63 18.15 32.79 23.45 22.87 20.71 21.31"/><polygon class="cls-2" points="16.49 3.64 14.24 6.32 14.24 6.32 14.49 10.17 14.73 14.04 15.33 23.29 15.33 23.29 18.37 17.43 18.51 13.84 18.65 10 18.8 6.15 18.8 6.15 16.49 3.64"/><polygon class="cls-3" points="25.21 8.91 22.28 9.91 22.28 9.91 21.83 10.77 20.05 14.2 18.37 17.43 15.33 23.29 15.33 23.29 17.52 24.5 23.17 15.9 25.28 12.69 25.82 11.87 25.82 11.87 25.21 8.91"/><path class="cls-3" d="M26.05,13.34l-.39.6-1.74,2.64a9.54,9.54,0,0,1-4.34,15.94l-1.19,2.25-1,1.9a13.37,13.37,0,0,0,8.68-23.33Z"/><path class="cls-2" d="M11.56,32.93l.88-1.3A9.56,9.56,0,0,1,13.88,14.3l-.15-2.24-.11-1.68A13.38,13.38,0,0,0,10.3,34.81Z"/></svg>