<svg id="Layer_1" data-name="Layer 1" xmlns="http://www.w3.org/2000/svg" viewBox="0 0 80 100"><defs><style>.cls-1{fill:#305051;}.cls-2{fill:#137b8c;}</style></defs><polygon class="cls-1" points="49.86 47.52 30.84 75.78 25.18 84.19 22.03 88.86 22.03 88.86 23.93 98.66 33.63 95.47 33.63 95.47 37.83 87.6 43.19 77.56 57.03 51.6 49.86 47.52"/><polygon class="cls-2" points="38.83 1.3 32.95 8.3 32.95 8.3 33.6 18.38 34.24 28.49 35.8 52.68 35.8 52.68 43.75 37.38 44.11 27.97 44.49 17.93 44.88 7.87 44.88 7.87 38.83 1.3"/><polygon class="cls-1" points="61.65 15.07 53.98 17.69 53.98 17.69 52.81 19.94 48.15 28.91 43.75 37.38 35.8 52.68 35.8 52.68 41.52 55.86 56.31 33.36 61.83 24.97 63.23 22.83 63.24 22.83 61.65 15.07"/><path class="cls-1" d="M63.85,26.66l-1,1.57-4.54,6.92a25,25,0,0,1-11.34,41.7L43.8,82.72l-2.66,5a35,35,0,0,0,22.71-61Z"/><path class="cls-2" d="M26,77.93l2.3-3.42A25,25,0,0,1,32,29.19l-.37-5.87-.28-4.4a35,35,0,0,0-8.69,63.9Z"/></svg>