<svg id="Layer_1" data-name="Layer 1" xmlns="http://www.w3.org/2000/svg" viewBox="0 0 385.06 70.87"><defs><style>.cls-1{fill:#1d1d1b;}.cls-2{fill:#117a8c;}.cls-3{fill:#2f4f50;}</style></defs><path class="cls-1" d="M153.35,88.44a14.28,14.28,0,0,1-6-1.15,8.46,8.46,0,0,1-3.75-3.16,8.37,8.37,0,0,1-1.28-4.57h5.15a4,4,0,0,0,.59,2.09,4.21,4.21,0,0,0,1.9,1.65,8,8,0,0,0,3.43.63,8.14,8.14,0,0,0,3.23-.56,4.4,4.4,0,0,0,1.93-1.46,3.45,3.45,0,0,0,.65-2,2.69,2.69,0,0,0-1.22-2.28,7.9,7.9,0,0,0-3.82-1.09l-2.36-.22a10.28,10.28,0,0,1-6.2-2.43,7.06,7.06,0,0,1-2.32-5.53A7.67,7.67,0,0,1,147.89,61a13.64,13.64,0,0,1,10.47.05,8,8,0,0,1,3.44,3,8.51,8.51,0,0,1,1.2,4.57h-5.14a4.08,4.08,0,0,0-.52-2,3.88,3.88,0,0,0-1.59-1.54,5.56,5.56,0,0,0-2.7-.59,5.44,5.44,0,0,0-2.57.54,3.84,3.84,0,0,0-1.54,1.41,3.69,3.69,0,0,0-.52,1.9,3,3,0,0,0,.93,2.2,4.38,4.38,0,0,0,2.92,1.09l2.33.23a14.7,14.7,0,0,1,5.09,1.22,8.37,8.37,0,0,1,3.39,2.7,6.87,6.87,0,0,1,1.22,4.11A7.72,7.72,0,0,1,163,84.35a8.64,8.64,0,0,1-3.8,3A14.57,14.57,0,0,1,153.35,88.44Z" transform="translate(-79.65 -35.81)"/><path class="cls-1" d="M173.66,87.74l9.18-27h8.62l9.48,27H195.5l-8-23.43,1.89.82h-4.63l1.93-.82-7.77,23.43Zm6.44-7.14,1.67-4.48h10.91l1.67,4.48Z" transform="translate(-79.65 -35.81)"/><path class="cls-1" d="M212.41,87.74v-27h5.25v27Z" transform="translate(-79.65 -35.81)"/><path class="cls-1" d="M231.8,87.74v-27h5.25v27Zm17.5,0-9.88-12.62h-3.81l11.73-14.39h6l-10.58,13-.15-2.59L255.7,87.74Z" transform="translate(-79.65 -35.81)"/><path class="cls-1" d="M266.21,87.74v-27h5.26v27Z" transform="translate(-79.65 -35.81)"/><path class="cls-2" d="M285.09,87.74v-27H292v27Z" transform="translate(-79.65 -35.81)"/><path class="cls-2" d="M297.89,87.74v-27h9.55L313,75h.74l5.51-14.24H329v27h-6.8V64.68l1.07.08-7,17.54H310l-7-17.54,1.15-.08V87.74Z" transform="translate(-79.65 -35.81)"/><path class="cls-2" d="M332.38,87.74l8.66-27h11l8.95,27h-7.1l-7-22.2,2,.74H344l2-.74-6.77,22.2Zm7.07-6.25,2.07-5.63h10.25l2.07,5.63Z" transform="translate(-79.65 -35.81)"/><path class="cls-2" d="M376.27,88.48a15.4,15.4,0,0,1-6.55-1.28,12.66,12.66,0,0,1-4.48-3.35,13.62,13.62,0,0,1-2.55-4.51,14.86,14.86,0,0,1-.82-4.77v-.82a15.38,15.38,0,0,1,.85-5,13.84,13.84,0,0,1,2.57-4.46,12.76,12.76,0,0,1,4.32-3.2,14.28,14.28,0,0,1,6.06-1.2,15.19,15.19,0,0,1,6.61,1.37,11.86,11.86,0,0,1,4.61,3.79,11.16,11.16,0,0,1,2,5.61H382a4.63,4.63,0,0,0-1.07-2.2,5.93,5.93,0,0,0-2.21-1.56,7.88,7.88,0,0,0-3.09-.57,7.17,7.17,0,0,0-2.94.57,6,6,0,0,0-2.14,1.63,7.28,7.28,0,0,0-1.32,2.5,10.85,10.85,0,0,0-.44,3.15,10.11,10.11,0,0,0,.48,3.16,7.45,7.45,0,0,0,1.41,2.55,6.08,6.08,0,0,0,2.33,1.69,8.33,8.33,0,0,0,3.22.59,7.8,7.8,0,0,0,4-1,5.37,5.37,0,0,0,2.33-2.56L382,82.74V76.86h6.29v5.55a11.31,11.31,0,0,1-4.83,4.5A15.84,15.84,0,0,1,376.27,88.48Zm-.74-10.29V73.38h15v4.81Z" transform="translate(-79.65 -35.81)"/><path class="cls-2" d="M394.4,87.74v-27h6.66v27Zm5.92-21.39V60.73H411.5v5.62Zm0,10.47V71.2h10.62v5.62Zm0,10.92V82.11h11.4v5.63Z" transform="translate(-79.65 -35.81)"/><path class="cls-2" d="M416.68,87.74V60.5h6.88V87.74Zm5.14-8.29V74.16h6.48a4.41,4.41,0,0,0,2.11-.48,3.43,3.43,0,0,0,1.38-1.37,4.07,4.07,0,0,0,.5-2.07,4.15,4.15,0,0,0-.5-2.11,3.37,3.37,0,0,0-1.38-1.37,4.41,4.41,0,0,0-2.11-.48h-6.48V60.5h6.07A15.73,15.73,0,0,1,434,61.56a8.4,8.4,0,0,1,3.92,3.11,9,9,0,0,1,1.37,5.08v.6a8.69,8.69,0,0,1-1.39,5.05,8.42,8.42,0,0,1-3.92,3,16.2,16.2,0,0,1-6.05,1ZM433,87.74l-7.59-11.47h7.48l8,11.47Z" transform="translate(-79.65 -35.81)"/><path class="cls-2" d="M448.32,77.6l-7.66-16.87h7l5.14,12-1-.33h2.66l-1,.33,4.55-12h6.66l-7,16.87Zm1.33,10.14v-11h6.73v11Z" transform="translate(-79.65 -35.81)"/><polygon class="cls-3" points="32.31 33.64 18.46 54.21 14.34 60.33 12.05 63.73 12.05 63.73 13.43 70.87 20.5 68.54 20.49 68.54 23.55 62.82 27.45 55.5 37.53 36.62 32.31 33.64"/><polygon class="cls-2" points="24.27 0 20 5.1 20 5.1 20.47 12.43 20.94 19.79 22.07 37.4 22.07 37.4 27.86 26.26 28.12 19.41 28.4 12.11 28.68 4.78 28.68 4.78 24.27 0"/><polygon class="cls-3" points="40.88 10.02 35.3 11.93 35.3 11.93 34.45 13.57 31.06 20.09 27.86 26.26 22.07 37.4 22.07 37.4 26.24 39.71 37 23.34 41.02 17.23 42.04 15.67 42.04 15.67 40.88 10.02"/><path class="cls-3" d="M122.13,54.26l-.75,1.15-3.31,5a18.18,18.18,0,0,1-8.25,30.35l-2.28,4.27-1.93,3.62a25.47,25.47,0,0,0,16.52-44.43Z" transform="translate(-79.65 -35.81)"/><path class="cls-2" d="M94.55,91.58l1.67-2.49A18.2,18.2,0,0,1,99,56.1l-.28-4.26-.2-3.21a25.47,25.47,0,0,0-6.32,46.51Z" transform="translate(-79.65 -35.81)"/></svg>