<svg id="Layer_1" data-name="Layer 1" xmlns="http://www.w3.org/2000/svg" viewBox="0 0 179.75 250"><defs><style>.cls-1{fill:#fff;}</style></defs><polygon class="cls-1" points="113.97 118.68 65.12 191.24 50.58 212.84 42.51 224.83 42.51 224.83 47.37 250 72.3 241.8 72.3 241.8 83.07 221.61 96.83 195.81 132.38 129.17 113.97 118.68"/><polygon class="cls-1" points="85.64 0 70.54 17.98 70.54 17.98 72.2 43.86 73.86 69.81 77.85 131.94 77.86 131.94 98.27 92.65 99.2 68.48 100.19 42.71 101.18 16.86 101.18 16.86 85.64 0"/><polygon class="cls-1" points="144.23 35.36 124.53 42.09 124.53 42.09 121.53 47.86 109.57 70.89 98.27 92.65 77.86 131.94 77.86 131.94 92.56 140.1 130.54 82.32 144.7 60.78 148.31 55.28 148.31 55.28 144.23 35.36"/><path class="cls-1" d="M209.72,89.73l-2.66,4-11.68,17.76a64.15,64.15,0,0,1-29.12,107.08l-8,15.06-6.82,12.78A89.85,89.85,0,0,0,209.72,89.73Z" transform="translate(-59.83 -24.62)"/><path class="cls-1" d="M112.39,221.38l5.92-8.78a64.2,64.2,0,0,1,9.61-116.38l-1-15-.72-11.31A89.87,89.87,0,0,0,103.93,234Z" transform="translate(-59.83 -24.62)"/></svg>