<svg id="Layer_1" data-name="Layer 1" xmlns="http://www.w3.org/2000/svg" viewBox="0 0 300 400"><defs><style>.cls-1{fill:#2f4f50;}.cls-2{fill:#6a7b8d;}</style></defs><polygon class="cls-1" points="186.78 190.43 112.05 301.43 89.8 334.48 77.45 352.82 77.45 352.82 84.89 391.33 123.03 378.78 123.03 378.78 139.5 347.9 160.57 308.42 214.95 206.47 186.78 190.43"/><polygon class="cls-2" points="143.44 8.85 120.34 36.35 120.34 36.35 122.88 75.95 125.42 115.66 131.52 210.71 131.54 210.71 162.76 150.6 164.18 113.62 165.7 74.2 167.22 34.65 167.22 34.65 143.44 8.85"/><polygon class="cls-1" points="233.08 62.95 202.94 73.24 202.94 73.24 198.35 82.07 180.05 117.31 162.76 150.6 131.54 210.71 131.54 210.71 154.02 223.19 212.13 134.8 233.79 101.84 239.32 93.43 239.32 93.43 233.08 62.95"/><path class="cls-1" d="M241.73,108.46l-4.07,6.2L219.8,141.83a98.16,98.16,0,0,1-44.55,163.83L163,328.7l-10.44,19.56a137.48,137.48,0,0,0,89.21-239.8Z"/><path class="cls-2" d="M92.83,309.88l9-13.44a98.2,98.2,0,0,1,14.71-178l-1.48-23L114,78.08a137.49,137.49,0,0,0-34.12,251Z"/></svg>