<svg id="Layer_1" data-name="Layer 1" xmlns="http://www.w3.org/2000/svg" viewBox="0 0 507.4 70.87"><defs><style>.cls-1{fill:#1d1d1b;}.cls-2{fill:#660e36;}.cls-3{fill:#2f4f50;}</style></defs><path class="cls-1" d="M92.18,88.44a14.28,14.28,0,0,1-6-1.15,8.46,8.46,0,0,1-3.75-3.16,8.37,8.37,0,0,1-1.28-4.57h5.15a4,4,0,0,0,.59,2.09,4.21,4.21,0,0,0,1.9,1.65,8,8,0,0,0,3.43.63,8.14,8.14,0,0,0,3.23-.56,4.4,4.4,0,0,0,1.93-1.46,3.45,3.45,0,0,0,.65-2,2.69,2.69,0,0,0-1.22-2.28A7.9,7.9,0,0,0,93,76.49l-2.36-.22a10.25,10.25,0,0,1-6.2-2.43,7.06,7.06,0,0,1-2.32-5.53A7.67,7.67,0,0,1,86.72,61,13.64,13.64,0,0,1,97.19,61a8,8,0,0,1,3.44,3,8.51,8.51,0,0,1,1.2,4.57H96.69a4.08,4.08,0,0,0-.52-2,3.88,3.88,0,0,0-1.59-1.54,5.56,5.56,0,0,0-2.7-.59,5.44,5.44,0,0,0-2.57.54,3.84,3.84,0,0,0-1.54,1.41,3.69,3.69,0,0,0-.52,1.9,3,3,0,0,0,.93,2.2A4.38,4.38,0,0,0,91.1,71.6l2.33.23a14.7,14.7,0,0,1,5.09,1.22,8.37,8.37,0,0,1,3.39,2.7,6.87,6.87,0,0,1,1.22,4.11,7.72,7.72,0,0,1-1.33,4.49,8.64,8.64,0,0,1-3.8,3A14.57,14.57,0,0,1,92.18,88.44Z" transform="translate(-18.48 -35.81)"/><path class="cls-1" d="M112.49,87.74l9.18-27h8.62l9.48,27h-5.44l-8-23.43,1.89.82h-4.63l1.93-.82-7.77,23.43Zm6.44-7.14,1.67-4.48h10.91l1.67,4.48Z" transform="translate(-18.48 -35.81)"/><path class="cls-1" d="M151.24,87.74v-27h5.25v27Z" transform="translate(-18.48 -35.81)"/><path class="cls-1" d="M170.63,87.74v-27h5.25v27Zm17.5,0-9.88-12.62h-3.81l11.73-14.39h6l-10.58,13-.15-2.59,13.06,16.65Z" transform="translate(-18.48 -35.81)"/><path class="cls-1" d="M205,87.74v-27h5.26v27Z" transform="translate(-18.48 -35.81)"/><path class="cls-2" d="M236.46,88.48a14.28,14.28,0,0,1-6.29-1.28,12.46,12.46,0,0,1-4.33-3.37,14.28,14.28,0,0,1-2.52-4.53,15,15,0,0,1-.81-4.73v-.82a15.66,15.66,0,0,1,.83-5,13.36,13.36,0,0,1,2.56-4.46,12.33,12.33,0,0,1,4.31-3.18,14.43,14.43,0,0,1,6.06-1.19,14.82,14.82,0,0,1,6.57,1.39,11.66,11.66,0,0,1,4.61,3.88,11.85,11.85,0,0,1,2,5.8H242.6a5.24,5.24,0,0,0-1.11-2.45,5.68,5.68,0,0,0-2.18-1.61,7.67,7.67,0,0,0-3-.57,7.08,7.08,0,0,0-2.86.56,5.84,5.84,0,0,0-2.15,1.57,7.1,7.1,0,0,0-1.33,2.46,11.75,11.75,0,0,0,0,6.51,6.88,6.88,0,0,0,1.37,2.48,5.77,5.77,0,0,0,2.2,1.57,7.62,7.62,0,0,0,3,.54,7.46,7.46,0,0,0,4.39-1.26A5.07,5.07,0,0,0,243,77.41h6.88a12.16,12.16,0,0,1-2,5.56,12.35,12.35,0,0,1-4.59,4A14.58,14.58,0,0,1,236.46,88.48Z" transform="translate(-18.48 -35.81)"/><path class="cls-2" d="M267.14,88.48a15.1,15.1,0,0,1-6.44-1.28,13.23,13.23,0,0,1-4.55-3.37,14.48,14.48,0,0,1-2.71-4.53,13.87,13.87,0,0,1-.88-4.73v-.82a14.27,14.27,0,0,1,.92-5,13.44,13.44,0,0,1,7.35-7.64,17.22,17.22,0,0,1,12.58,0A13.48,13.48,0,0,1,278,64.28a13.66,13.66,0,0,1,2.79,4.46,13.87,13.87,0,0,1,1,5v.82a13.47,13.47,0,0,1-.91,4.73,14.51,14.51,0,0,1-2.72,4.53,13.42,13.42,0,0,1-4.55,3.37A15,15,0,0,1,267.14,88.48Zm0-6.44a8.23,8.23,0,0,0,3.18-.59,7,7,0,0,0,2.41-1.67,7.18,7.18,0,0,0,1.51-2.49,8.91,8.91,0,0,0,.52-3.09,9.1,9.1,0,0,0-.54-3.22,7,7,0,0,0-1.53-2.48,6.76,6.76,0,0,0-2.41-1.59,8.44,8.44,0,0,0-3.14-.56,8.64,8.64,0,0,0-3.19.56A6.69,6.69,0,0,0,260,71a9.58,9.58,0,0,0-.52,3.22,9.15,9.15,0,0,0,.52,3.09,7.2,7.2,0,0,0,1.52,2.49,7,7,0,0,0,2.4,1.67A8.25,8.25,0,0,0,267.14,82Z" transform="translate(-18.48 -35.81)"/><path class="cls-2" d="M286.23,87.74v-27h11.29l9,21.53h1.3l-.74.67V60.73h6.44v27H302.14l-9-21.54h-1.29l.74-.66v22.2Z" transform="translate(-18.48 -35.81)"/><path class="cls-2" d="M329,88.48a15.1,15.1,0,0,1-6.34-1.19,8.78,8.78,0,0,1-3.89-3.23,8.61,8.61,0,0,1-1.31-4.72h6.66a3.07,3.07,0,0,0,.54,1.76,3.44,3.44,0,0,0,1.61,1.24,7.28,7.28,0,0,0,2.73.44,7.08,7.08,0,0,0,2.46-.37,3.46,3.46,0,0,0,1.56-1,2.43,2.43,0,0,0,.54-1.59,2.07,2.07,0,0,0-1-1.83,7.61,7.61,0,0,0-3.37-.83L327.42,77a11,11,0,0,1-6.66-2.63,7.71,7.71,0,0,1-2.48-6,8,8,0,0,1,1.24-4.55,7.9,7.9,0,0,1,3.5-2.89A14.8,14.8,0,0,1,334,61a8.06,8.06,0,0,1,3.53,3.13,8.78,8.78,0,0,1,1.22,4.68h-6.66a3.16,3.16,0,0,0-.44-1.63A3.07,3.07,0,0,0,330.36,66a4.31,4.31,0,0,0-2-.43,4.44,4.44,0,0,0-1.86.35,2.6,2.6,0,0,0-1.15,1,2.62,2.62,0,0,0-.39,1.41,2.46,2.46,0,0,0,.7,1.77,3.74,3.74,0,0,0,2.45.89l1.74.15a16.29,16.29,0,0,1,5.36,1.31,9,9,0,0,1,3.66,2.87,7.29,7.29,0,0,1,1.34,4.44,7.88,7.88,0,0,1-1.35,4.59,8.75,8.75,0,0,1-3.85,3A15.32,15.32,0,0,1,329,88.48Z" transform="translate(-18.48 -35.81)"/><path class="cls-2" d="M355.66,88.48A13.72,13.72,0,0,1,349.09,87,9.78,9.78,0,0,1,345,83a13.2,13.2,0,0,1-1.41-6.28V60.73h6.88V76.82a6.09,6.09,0,0,0,.61,2.78,4.27,4.27,0,0,0,1.76,1.81,6.6,6.6,0,0,0,5.63,0,4.23,4.23,0,0,0,1.74-1.79,6.19,6.19,0,0,0,.59-2.8V60.73h6.88V76.67A13.32,13.32,0,0,1,366.29,83,9.67,9.67,0,0,1,362.22,87,13.71,13.71,0,0,1,355.66,88.48Z" transform="translate(-18.48 -35.81)"/><path class="cls-2" d="M373,87.74v-27h6.88v27Zm6.14,0v-6h11v6Z" transform="translate(-18.48 -35.81)"/><path class="cls-2" d="M388.92,66.72v-6h21.69v6Zm7.4,21V66h6.89V87.74Z" transform="translate(-18.48 -35.81)"/><path class="cls-2" d="M409.5,87.74l8.66-27h11l9,27H431l-6.95-22.2,2,.74h-4.89l2-.74-6.77,22.2Zm7.07-6.25,2.07-5.63h10.25L431,81.49Z" transform="translate(-18.48 -35.81)"/><path class="cls-2" d="M441.54,87.74v-27h11.29l9,21.53h1.3l-.74.67V60.73h6.44v27H457.46l-9-21.54h-1.29l.74-.66v22.2Z" transform="translate(-18.48 -35.81)"/><path class="cls-2" d="M487.28,88.48A14.28,14.28,0,0,1,481,87.2a12.56,12.56,0,0,1-4.33-3.37,14.25,14.25,0,0,1-2.51-4.53,14.77,14.77,0,0,1-.82-4.73v-.82a15.41,15.41,0,0,1,.84-5,13.17,13.17,0,0,1,2.55-4.46A12.42,12.42,0,0,1,481,61.1a14.48,14.48,0,0,1,6.07-1.19,14.89,14.89,0,0,1,6.57,1.39,11.7,11.7,0,0,1,4.6,3.88,11.85,11.85,0,0,1,2,5.8h-6.88a5.45,5.45,0,0,0-1.11-2.45,5.79,5.79,0,0,0-2.19-1.61,7.65,7.65,0,0,0-3-.57,7.13,7.13,0,0,0-2.87.56,5.84,5.84,0,0,0-2.15,1.57,7.1,7.1,0,0,0-1.33,2.46,11.75,11.75,0,0,0,0,6.51,7,7,0,0,0,1.37,2.48,5.77,5.77,0,0,0,2.2,1.57,7.66,7.66,0,0,0,3,.54,7.46,7.46,0,0,0,4.39-1.26,5,5,0,0,0,2.16-3.37h6.89A12.12,12.12,0,0,1,494.09,87,14.56,14.56,0,0,1,487.28,88.48Z" transform="translate(-18.48 -35.81)"/><path class="cls-2" d="M509.49,77.6l-7.66-16.87h7l5.14,12-1-.33h2.66l-1,.33,4.55-12h6.66l-7,16.87Zm1.33,10.14v-11h6.73v11Z" transform="translate(-18.48 -35.81)"/><polygon class="cls-3" points="32.31 33.64 18.46 54.21 14.34 60.33 12.05 63.73 12.05 63.73 13.43 70.87 20.5 68.54 20.49 68.54 23.55 62.82 27.45 55.5 37.53 36.62 32.31 33.64"/><polygon class="cls-2" points="24.27 0 20 5.1 20 5.1 20.47 12.43 20.94 19.79 22.07 37.4 22.07 37.4 27.86 26.26 28.12 19.41 28.4 12.11 28.68 4.78 28.68 4.78 24.27 0"/><polygon class="cls-3" points="40.88 10.02 35.3 11.93 35.3 11.93 34.45 13.57 31.06 20.09 27.86 26.26 22.07 37.4 22.07 37.4 26.24 39.71 37 23.34 41.02 17.23 42.04 15.67 42.04 15.67 40.88 10.02"/><path class="cls-3" d="M61,54.26l-.75,1.15-3.31,5A18.18,18.18,0,0,1,48.65,90.8l-2.28,4.27-1.93,3.62A25.47,25.47,0,0,0,61,54.26Z" transform="translate(-18.48 -35.81)"/><path class="cls-2" d="M33.38,91.58l1.67-2.49a18.2,18.2,0,0,1,2.73-33l-.28-4.26-.2-3.21A25.47,25.47,0,0,0,31,95.14Z" transform="translate(-18.48 -35.81)"/></svg>