<svg id="Layer_1" data-name="Layer 1" xmlns="http://www.w3.org/2000/svg" viewBox="0 0 275 382.48"><defs><style>.cls-1{fill:#fff;}</style></defs><polygon class="cls-1" points="174.37 181.58 99.63 292.58 77.38 325.63 65.04 343.97 65.03 343.97 72.47 382.48 110.61 369.93 110.61 369.93 127.09 339.05 148.15 299.57 202.53 197.62 174.37 181.58"/><polygon class="cls-1" points="131.02 0 107.92 27.5 107.92 27.5 110.46 67.1 113.01 106.8 119.11 201.86 119.12 201.86 150.35 141.75 151.77 104.77 153.28 65.34 154.8 25.8 154.8 25.8 131.02 0"/><polygon class="cls-1" points="220.67 54.1 190.52 64.39 190.52 64.39 185.94 73.22 167.64 108.45 150.35 141.75 119.12 201.86 119.12 201.86 141.61 214.34 199.71 125.95 221.38 92.99 226.9 84.58 226.9 84.58 220.67 54.1"/><path class="cls-1" d="M241.73,108.46l-4.07,6.2L219.8,141.83a98.16,98.16,0,0,1-44.55,163.83L163,328.7l-10.44,19.56a137.48,137.48,0,0,0,89.21-239.8Z" transform="translate(-12.42 -8.85)"/><path class="cls-1" d="M92.83,309.88l9-13.44a98.2,98.2,0,0,1,14.71-178l-1.48-23L114,78.08a137.49,137.49,0,0,0-34.12,251Z" transform="translate(-12.42 -8.85)"/></svg>